HIERARCHY
ROOT Hips
{
	OFFSET -0.001795 -0.223333 0.028219
	CHANNELS 6 Xposition Yposition Zposition Zrotation Yrotation Xrotation 
	JOINT LeftUpLeg
	{
		OFFSET 0.069520 -0.091406 -0.006815
		CHANNELS 3 Zrotation Yrotation Xrotation
		JOINT LeftLeg
		{
			OFFSET 0.034277 -0.375199 -0.004496
			CHANNELS 3 Zrotation Yrotation Xrotation
			JOINT LeftFoot
			{
				OFFSET -0.013596 -0.397961 -0.043693
				CHANNELS 3 Zrotation Yrotation Xrotation
				JOINT LeftToe
				{
					OFFSET 0.026358 -0.055791 0.119288
					CHANNELS 3 Zrotation Yrotation Xrotation
					End Site
					{
						OFFSET 0.000000 0.000000 0.000000
					}
				}
			}
		}
	}
	JOINT RightUpLeg
	{
		OFFSET -0.067670 -0.090522 -0.004320
		CHANNELS 3 Zrotation Yrotation Xrotation
		JOINT RightLeg
		{
			OFFSET -0.038290 -0.382569 -0.008850
			CHANNELS 3 Zrotation Yrotation Xrotation
			JOINT RightFoot
			{
				OFFSET 0.015774 -0.398415 -0.042312
				CHANNELS 3 Zrotation Yrotation Xrotation
				JOINT RightToe
				{
					OFFSET -0.025372 -0.048144 0.123348
					CHANNELS 3 Zrotation Yrotation Xrotation
					End Site
					{
						OFFSET 0.000000 0.000000 0.000000
					}
				}
			}
		}
	}
	JOINT Spine
	{
		OFFSET -0.002533 0.108963 -0.026696
		CHANNELS 3 Zrotation Yrotation Xrotation
		JOINT Spine1
		{
			OFFSET 0.005487 0.135180 0.001092
			CHANNELS 3 Zrotation Yrotation Xrotation
			JOINT Spine2
			{
				OFFSET 0.001457 0.052922 0.025425
				CHANNELS 3 Zrotation Yrotation Xrotation
				JOINT Neck
				{
					OFFSET -0.002778 0.213870 -0.042857
					CHANNELS 3 Zrotation Yrotation Xrotation
					JOINT Head
					{
						OFFSET 0.005152 0.064970 0.051349
						CHANNELS 3 Zrotation Yrotation Xrotation
						End Site
						{
							OFFSET 0.000000 0.000000 0.000000
						}
					}
				}
				JOINT LeftShoulder
				{
					OFFSET 0.078845 0.121749 -0.034090
					CHANNELS 3 Zrotation Yrotation Xrotation
					JOINT LeftArm
					{
						OFFSET 0.090977 0.030469 -0.008868
						CHANNELS 3 Zrotation Yrotation Xrotation
						JOINT LeftForeArm
						{
							OFFSET 0.259612 -0.012772 -0.027456
							CHANNELS 3 Zrotation Yrotation Xrotation
							JOINT LeftHand
							{
								OFFSET 0.249234 0.008986 -0.001171
								CHANNELS 3 Zrotation Yrotation Xrotation
								End Site
								{
									OFFSET 0.000000 0.000000 0.000000
								}
							}
						}
					}
				}
				JOINT RightShoulder
				{
					OFFSET -0.081759 0.118833 -0.038615
					CHANNELS 3 Zrotation Yrotation Xrotation
					JOINT RightArm
					{
						OFFSET -0.096012 0.032551 -0.009143
						CHANNELS 3 Zrotation Yrotation Xrotation
						JOINT RightForeArm
						{
							OFFSET -0.253742 -0.013329 -0.021401
							CHANNELS 3 Zrotation Yrotation Xrotation
							JOINT RightHand
							{
								OFFSET -0.255298 0.007772 -0.005559
								CHANNELS 3 Zrotation Yrotation Xrotation
								End Site
								{
									OFFSET 0.000000 0.000000 0.000000
								}
							}
						}
					}
				}
			}
		}
	}
}
MOTION
Frames: 16
Frame Time: 0.050000
0.000000 0.941857 0.000000 -1.114102 -4.232921 6.083382 7.364605 -0.214537 -3.296189 -3.855348 0.451005 -2.961079 2.770515 8.349885 10.520236 0.000000 0.000000 0.000000 -3.857795 0.439565 -3.981494 -3.464380 -0.085709 -6.151966 0.098476 -5.586195 12.574074 0.000000 0.000000 0.000000 4.545610 0.147947 -3.275236 -2.590065 1.185687 -3.054966 -2.639475 4.314877 0.991558 5.014932 -2.892086 -6.688820 0.000000 0.000000 0.000000 -16.499791 -2.260514 -1.103869 -55.568001 -8.278034 -2.358428 -10.013424 -14.320790 1.687102 0.000000 0.000000 0.000000 14.697903 -4.223947 -3.055448 60.532307 4.130000 -3.287749 9.648776 17.785630 1.956250 0.000000 0.000000 0.000000 
-0.000123 0.941178 0.000089 -1.422998 -5.186086 6.819054 7.038539 -0.201879 -2.769708 -2.853711 0.384484 -4.916437 3.243208 9.107996 10.864813 0.000000 0.000000 0.000000 -3.836541 0.526988 -5.093431 -3.018758 -0.092572 -5.883252 0.479933 -4.941827 12.392975 0.000000 0.000000 0.000000 5.289293 0.162686 -3.496456 -3.017014 1.357148 -3.414134 -2.944275 4.961098 0.175851 5.101233 -2.919814 -6.732417 0.000000 0.000000 0.000000 -17.521179 -1.668212 -1.601583 -54.469203 -7.954828 -2.340899 -11.454392 -13.476207 1.739353 0.000000 0.000000 0.000000 14.092025 -5.121469 -3.412215 61.394049 3.104471 -3.733718 10.474610 17.658002 2.053296 0.000000 0.000000 0.000000 
-0.000084 0.941184 0.000023 -1.352955 -4.949235 6.595963 6.713601 -0.213599 -3.053775 -2.371835 0.333366 -4.080298 3.192801 8.997188 10.579476 0.000000 0.000000 0.000000 -3.452111 0.530624 -5.238112 -3.821101 -0.002644 -5.115713 0.310216 -5.134334 12.122540 0.000000 0.000000 0.000000 4.966289 0.116177 -2.954369 -2.146405 0.965603 -5.014308 -3.602508 5.190864 0.765401 5.499518 -3.241538 -6.433704 0.000000 0.000000 0.000000 -17.177052 -1.737814 -1.604420 -54.744658 -7.186771 -2.770875 -10.987209 -12.480776 1.554021 0.000000 0.000000 0.000000 15.466780 -4.810471 -3.325409 60.199990 2.533787 -4.046176 9.424457 17.798241 1.944535 0.000000 0.000000 0.000000 
-0.000039 0.941033 0.000053 -1.566271 -5.232368 7.285504 6.976340 -0.224040 -3.300814 -2.475369 0.354290 -4.840359 3.336995 9.248086 10.817824 0.000000 0.000000 0.000000 -3.472881 0.598154 -6.072380 -3.426767 -0.020330 -5.037460 0.423523 -4.982447 12.181531 0.000000 0.000000 0.000000 5.032432 0.146945 -3.400252 -2.500322 1.111755 -4.784378 -2.956652 4.562226 -0.372077 5.003547 -3.115794 -5.074479 0.000000 0.000000 0.000000 -17.137145 -0.934897 -1.840221 -55.249175 -7.283591 -2.653212 -10.496904 -11.306473 1.367386 0.000000 0.000000 0.000000 14.288329 -4.889995 -3.407613 60.617900 1.911078 -4.257886 10.648645 17.893507 2.088724 0.000000 0.000000 0.000000 
-0.000023 0.941572 0.000093 -1.462721 -5.200278 7.040706 6.406496 -0.231535 -3.354782 -1.668036 0.280322 -4.299227 3.340519 9.256088 10.803167 0.000000 0.000000 0.000000 -3.393331 0.577273 -5.818161 -3.756973 -0.000991 -5.013804 0.438471 -4.987015 12.273311 0.000000 0.000000 0.000000 4.812523 0.139311 -3.274411 -2.253449 1.011330 -4.530220 -3.057448 4.338881 -0.427808 4.799777 -2.919599 -5.429554 0.000000 0.000000 0.000000 -17.041672 -0.879010 -1.821106 -55.098358 -7.227451 -2.674226 -11.018965 -10.680529 1.338288 0.000000 0.000000 0.000000 14.013996 -5.216817 -3.559222 60.750850 1.758046 -4.343295 10.833231 18.009298 2.124783 0.000000 0.000000 0.000000 
-0.000040 0.942139 0.000163 -1.481093 -5.428693 7.436499 6.426357 -0.235118 -3.385374 -1.709218 0.298129 -4.932086 3.395442 9.394024 11.237647 0.000000 0.000000 0.000000 -3.424555 0.601751 -6.092835 -3.695814 -0.029881 -5.369885 0.599953 -4.840512 12.594103 0.000000 0.000000 0.000000 4.755743 0.170354 -3.679058 -2.187088 0.977699 -4.754629 -2.744800 4.277972 -0.243263 4.650468 -2.864025 -5.170932 0.000000 0.000000 0.000000 -17.025979 -0.355897 -2.016298 -55.278051 -7.333016 -2.657413 -11.138434 -9.884722 1.249402 0.000000 0.000000 0.000000 13.223085 -5.321879 -3.544878 61.226403 1.781301 -4.379524 11.143190 17.942215 2.150884 0.000000 0.000000 0.000000 
-0.000138 0.942506 0.000144 -1.501926 -5.397459 7.571925 6.156251 -0.250790 -3.630319 -1.170618 0.252920 -4.771237 3.402036 9.418394 11.314662 0.000000 0.000000 0.000000 -3.260676 0.617026 -6.289394 -3.934384 -0.011464 -5.270820 0.599897 -4.877113 12.691351 0.000000 0.000000 0.000000 4.812360 0.185461 -3.868294 -2.192309 0.982934 -4.475709 -2.671103 4.074592 -0.383903 4.555020 -2.761289 -5.431205 0.000000 0.000000 0.000000 -17.006281 -0.189832 -2.058677 -54.725525 -6.953731 -2.789266 -11.715994 -10.130674 1.332517 0.000000 0.000000 0.000000 13.134435 -5.385657 -3.595726 61.230380 1.410993 -4.563478 11.339026 18.499118 2.247733 0.000000 0.000000 0.000000 
-0.000277 0.942900 0.000041 -1.658103 -5.527031 7.829339 5.958417 -0.264375 -3.840253 -0.521305 0.205538 -4.832458 3.489257 9.571923 11.473315 0.000000 0.000000 0.000000 -2.946859 0.639001 -6.540454 -4.188636 -0.006093 -5.357902 0.706900 -4.781290 12.898649 0.000000 0.000000 0.000000 4.877492 0.199858 -4.061296 -2.114987 0.950368 -4.255406 -2.661393 4.197345 -0.660395 4.788095 -2.982324 -5.014429 0.000000 0.000000 0.000000 -16.954534 -0.127453 -2.104921 -54.096531 -6.898117 -2.747409 -12.455934 -10.348634 1.423881 0.000000 0.000000 0.000000 13.313665 -5.610562 -3.724231 61.167419 1.168663 -4.650098 11.605438 18.757256 2.322803 0.000000 0.000000 0.000000 
-0.000406 0.943125 -0.000097 -1.750859 -5.541025 7.891909 5.855990 -0.272252 -3.977862 -0.144258 0.172424 -4.699861 3.516868 9.619962 11.505296 0.000000 0.000000 0.000000 -2.788732 0.636437 -6.498255 -4.270683 -0.017057 -5.563112 0.756492 -4.754404 13.058060 0.000000 0.000000 0.000000 4.853106 0.186967 -3.929891 -2.056488 0.924492 -4.333089 -2.491602 4.366598 -0.656430 4.980956 -3.122071 -4.982312 0.000000 0.000000 0.000000 -16.768777 -0.325473 -2.004692 -53.613813 -7.140805 -2.609281 -13.184569 -10.682711 1.534934 0.000000 0.000000 0.000000 13.576466 -5.562911 -3.721360 60.692313 1.082077 -4.652451 11.921333 19.138714 2.429634 0.000000 0.000000 0.000000 
-0.000503 0.943257 -0.000233 -1.815494 -5.507453 7.979848 5.708948 -0.287180 -4.238794 0.264448 0.130463 -4.419838 3.535705 9.648827 11.476777 0.000000 0.000000 0.000000 -2.640921 0.644644 -6.591446 -4.392556 -0.011279 -5.562341 0.756073 -4.778330 13.126908 0.000000 0.000000 0.000000 4.993950 0.196645 -4.047859 -2.212264 0.995410 -3.914664 -2.350358 4.379803 -0.842706 5.181351 -3.297984 -4.751647 0.000000 0.000000 0.000000 -16.665529 -0.490595 -1.915681 -52.959974 -7.485005 -2.402694 -14.068990 -10.969226 1.657857 0.000000 0.000000 0.000000 13.609552 -5.424347 -3.661835 60.667742 1.089432 -4.627217 11.957987 19.533747 2.491102 0.000000 0.000000 0.000000 
-0.000545 0.943134 -0.000355 -1.830041 -5.496675 8.036837 5.748857 -0.286740 -4.225808 0.232188 0.138719 -4.567087 3.529680 9.640611 11.483362 0.000000 0.000000 0.000000 -2.714888 0.647187 -6.620327 -4.227993 -0.024163 -5.630632 0.747477 -4.789954 13.124664 0.000000 0.000000 0.000000 5.019667 0.190664 -3.992241 -2.303066 1.035355 -3.836767 -2.252565 4.428060 -0.834347 5.253848 -3.335870 -4.837592 0.000000 0.000000 0.000000 -16.362730 -0.851034 -1.702643 -52.565973 -7.889754 -2.206546 -14.707753 -11.575328 1.814727 0.000000 0.000000 0.000000 13.528546 -5.265739 -3.570317 60.662573 1.339246 -4.496497 12.109234 19.754832 2.548460 0.000000 0.000000 0.000000 
-0.000565 0.942922 -0.000454 -1.777125 -5.397469 8.089054 5.886547 -0.284972 -4.196929 -0.089688 0.171072 -4.777889 3.466318 9.545941 11.479328 0.000000 0.000000 0.000000 -2.770678 0.639210 -6.521049 -4.221861 -0.043230 -5.897783 0.705662 -4.863227 13.159270 0.000000 0.000000 0.000000 4.964155 0.183485 -3.934965 -2.295566 1.036420 -3.563800 -2.081228 4.300342 -1.055320 5.548130 -3.494003 -5.157453 0.000000 0.000000 0.000000 -16.315136 -0.955124 -1.630700 -51.933845 -8.011699 -2.102481 -15.102410 -12.211219 1.960191 0.000000 0.000000 0.000000 13.450835 -5.271177 -3.582612 60.670789 1.260308 -4.515766 11.929983 20.623863 2.640367 0.000000 0.000000 0.000000 
-0.000497 0.942862 -0.000577 -1.745768 -5.442921 8.046448 5.752332 -0.280680 -4.034010 0.069829 0.167183 -4.989421 3.475215 9.564267 11.525185 0.000000 0.000000 0.000000 -2.869699 0.635112 -6.471313 -4.117669 -0.050893 -5.938797 0.723798 -4.829297 13.145545 0.000000 0.000000 0.000000 4.845631 0.169823 -3.780993 -2.076087 0.942834 -3.422283 -2.131109 4.512492 -1.302618 5.840600 -3.676401 -5.245358 0.000000 0.000000 0.000000 -16.346314 -1.103151 -1.614328 -51.251384 -7.878572 -2.094970 -15.652130 -13.179964 2.175824 0.000000 0.000000 0.000000 13.709191 -5.312905 -3.609578 60.339207 1.095176 -4.541102 12.338971 21.647441 2.869841 0.000000 0.000000 0.000000 
-0.000382 0.942783 -0.000720 -1.674867 -5.644496 8.031725 5.485048 -0.288359 -4.147344 0.354143 0.135531 -4.720844 3.595455 9.735617 11.481160 0.000000 0.000000 0.000000 -2.873875 0.641044 -6.537937 -4.286823 -0.040528 -5.886665 0.805888 -4.688430 13.093648 0.000000 0.000000 0.000000 4.707060 0.154432 -3.600500 -2.064198 0.938237 -3.236138 -2.076146 4.820694 -1.587871 6.506844 -4.236468 -4.693081 0.000000 0.000000 0.000000 -16.045136 -1.364152 -1.497416 -50.589797 -7.523110 -2.180403 -16.472676 -14.204285 2.442460 0.000000 0.000000 0.000000 13.601202 -5.356273 -3.590696 60.402128 0.649411 -4.729520 12.757533 23.310041 3.209195 0.000000 0.000000 0.000000 
-0.000215 0.942756 -0.000872 -1.522802 -5.462567 8.062322 5.235363 -0.304190 -4.328313 0.520493 0.117184 -4.576265 3.511415 9.609545 11.447331 0.000000 0.000000 0.000000 -3.042877 0.645111 -6.599578 -4.287522 -0.034774 -5.816687 0.695357 -4.849898 13.058103 0.000000 0.000000 0.000000 4.514536 0.142323 -3.479695 -1.957202 0.892047 -3.341333 -2.171015 5.074266 -1.775355 6.689255 -4.397786 -4.448070 0.000000 0.000000 0.000000 -15.932685 -1.177931 -1.657568 -49.879053 -6.851768 -2.390060 -17.928801 -15.593142 2.867750 0.000000 0.000000 0.000000 13.451136 -5.690135 -3.677591 60.235700 0.240109 -4.878955 13.730423 24.696764 3.648096 0.000000 0.000000 0.000000 
-0.000053 0.942493 -0.000994 -1.253857 -5.421764 8.017803 4.905019 -0.319051 -4.496072 0.573679 0.100786 -4.279395 3.499324 9.579257 11.347173 0.000000 0.000000 0.000000 -3.261904 0.650767 -6.687244 -4.447383 -0.012250 -5.612211 0.616264 -4.917928 12.871347 0.000000 0.000000 0.000000 4.447168 0.134356 -3.381821 -1.990796 0.908249 -3.227120 -2.467924 5.624586 -1.928231 7.536027 -5.098155 -3.931192 0.000000 0.000000 0.000000 -15.667326 -1.275305 -1.710688 -48.666575 -6.112160 -2.580328 -19.893002 -17.824992 3.561523 0.000000 0.000000 0.000000 13.441046 -5.966805 -3.714628 59.386698 -0.989668 -5.370471 16.852571 28.386293 5.085305 0.000000 0.000000 0.000000 
